<?xml version="1.0" standalone="no"?><!DOCTYPE svg PUBLIC "-//W3C//DTD SVG 1.1//EN" "http://www.w3.org/Graphics/SVG/1.1/DTD/svg11.dtd"><svg t="1598786687895" class="icon" viewBox="0 0 1024 1024" version="1.1" xmlns="http://www.w3.org/2000/svg" p-id="11176" xmlns:xlink="http://www.w3.org/1999/xlink" width="200" height="200"><defs><style type="text/css"></style></defs><path d="M923.66317037 242.7360391c51.78153127-85.43952592 77.6722963-157.93366873 44.01430164-191.59166339-28.47984238-28.47984238-77.6722963-20.71261275-157.93366995 25.89076504-12.94538311 7.76722963-18.12353539 23.30168889-10.35630576 36.247072 7.76722963 12.94538311 23.30168889 15.53445925 36.24707201 10.35630577 75.08322016-41.42522429 95.79583169-33.65799466 95.79583169-33.65799466 18.12353539 28.47984238-88.02860206 222.66058311-352.11440947 484.15731317C317.81925925 838.22364445 123.63851852 941.78670577 95.15867614 926.25224651c-2.58907614-5.17815349 0-46.60337778 59.54876089-139.81013334 5.17815349-10.35630577 5.17815349-20.71261275 0-28.47984116-51.78153127-72.49414281-77.6722963-160.52274608-77.67229628-248.55134815C77.03514075 268.62680534 273.80495762 71.85698725 514.58907614 71.85698725c67.31599053 0 129.45382756 15.53445925 189.00258847 44.01430164 12.94538311 5.17815349 28.47984238 0 33.65799464-12.94538312 5.17815349-12.94538311 0-28.47984238-12.94538311-33.65799466C656.98828683 38.19899259 587.08322016 20.07545719 512 20.07545719 242.7360391 20.07545719 22.66453333 240.14696297 22.66453333 509.41092386c0 95.79583169 28.47984238 186.41351111 77.6722963 264.08580741-62.13783703 98.38490905-75.08322016 157.93366873-44.01430164 189.00258725 10.35630577 7.76722963 23.30168889 15.53445925 44.01430164 15.53445926 28.47984238 0 75.08322016-15.53445925 147.57736296-62.13783703 77.6722963 51.78153127 170.87905185 77.6722963 264.08580741 77.67229628 269.2639609 0 489.33546667-220.07150577 489.33546667-489.33546666 0-90.61767941-25.89076502-183.82443498-77.6722963-261.49673127zM514.58907614 944.37578311c-77.6722963 0-150.1664391-20.71261275-217.48242963-56.95968475 95.79583169-67.31599053 209.7152-163.11182222 321.04549217-274.44211318 85.43952592-85.43952592 199.35889423-209.7152 274.44211317-321.04549095 38.83614815 64.72691317 56.95968355 139.81013333 56.95968354 217.48242963 0 238.19504238-194.18074075 434.96485925-434.96485925 434.96485925z" fill="#4fc08d" p-id="11177"></path><path d="M286.75034075 434.3277037c-46.60337778 0-85.43952592 38.83614815-85.43952593 85.43952593 0 46.60337778 38.83614815 85.43952592 85.43952593 85.43952592s88.02860206-38.83614815 88.02860206-85.43952592c0-46.60337778-38.83614815-85.43952592-88.02860206-85.43952593z m0 121.68659794c-18.12353539 0-33.65799466-15.53445925-33.65799467-33.65799587s15.53445925-33.65799466 33.65799467-33.65799466c18.12353539 0 36.24707201 15.53445925 36.247072 33.65799466s-15.53445925 33.65799466-36.247072 33.65799587zM470.57477571 364.42263703c54.37060741 0 98.38490905-44.01430164 98.38490784-98.38490904 0-54.37060741-44.01430164-98.38490905-98.38490784-98.38490783-54.37060741 0-98.38490905 44.01430164-98.38490904 98.38490783 0 51.78153127 44.01430164 98.38490905 98.38490904 98.38490904z m0-147.57736295c25.89076502 0 46.60337778 20.71261275 46.60337778 46.60337777s-20.71261275 46.60337778-46.60337778 46.60337778-46.60337778-20.71261275-46.60337777-46.60337778 20.71261275-46.60337778 46.60337777-46.60337777z" fill="#4fc08d" p-id="11178"></path><path d="M659.57736297 745.01688889m-54.37060742 0a54.37060741 54.37060741 0 1 0 108.74121482 0 54.37060741 54.37060741 0 1 0-108.74121482 0Z" fill="#4fc08d" p-id="11179"></path></svg>